<svg version="1.1" viewBox="0.0 0.0 600.0 600.0" fill="none" stroke="none" stroke-linecap="square" stroke-miterlimit="10" xmlns:xlink="http://www.w3.org/1999/xlink" xmlns="http://www.w3.org/2000/svg"><clipPath id="p.0"><path d="m0 0l600.0 0l0 600.0l-600.0 0l0 -600.0z" clip-rule="nonzero"/></clipPath><g clip-path="url(#p.0)"><path fill="#000000" fill-opacity="0.0" d="m0 0l600.0 0l0 600.0l-600.0 0z" fill-rule="evenodd"/><path fill="#6f36ff" d="m95.10534 388.13422l0 0c0 -11.985016 9.934341 -21.700806 22.188972 -21.700806l0 0c5.88488 0 11.528732 2.2863464 15.689972 6.356018c4.1612396 4.069702 6.499008 9.589386 6.499008 15.344788l0 0c0 11.985016 -9.934341 21.700775 -22.18898 21.700775l0 0c-12.254631 0 -22.188972 -9.715759 -22.188972 -21.700775z" fill-rule="evenodd"/><path fill="#6f36ff" d="m390.2112 453.14587c8.158356 4.195984 60.37271 -6.5257874 82.51706 -6.9921265c22.144379 -0.4663086 35.89676 0.46502686 50.34906 4.1942444c14.452332 3.7292175 33.1015 22.842957 36.36487 18.181091c3.2633057 -4.6618347 -4.8967896 -36.12903 -16.78479 -46.15222c-11.8880005 -10.023193 -34.730103 -13.753723 -54.543304 -13.986877c-19.813202 -0.2331543 -48.0188 5.128601 -64.33597 12.587921c-16.317139 7.45932 -41.72528 27.972015 -33.566925 32.16797z" fill-rule="evenodd"/><path fill="#6f36ff" d="m222.37683 16.782188c-6.060364 -3.4965 -29.370514 -4.8937006 -51.74803 5.5958004c-22.377518 10.489504 -61.304893 34.730537 -82.51706 57.34121c-21.212158 22.610672 -39.161415 50.11767 -44.7559 78.32284c-5.59449 28.205154 -1.1653557 63.868317 11.188976 90.90813c12.354332 27.039825 42.89064 52.216553 62.937004 71.33072c20.04638 19.114166 38.460197 28.436127 57.34121 43.35431c18.881012 14.918213 43.35739 42.658356 55.944885 46.154877c12.587494 3.4964905 12.820206 -7.9265137 19.580048 -25.175873c6.759857 -17.249329 6.759857 -51.280823 20.979004 -78.32019c14.219147 -27.039368 48.0188 -62.93701 64.33597 -83.916016c16.317139 -20.979004 19.114594 -30.535873 33.566925 -41.958008c14.452301 -11.422134 45.4545 -37.530624 53.146973 -26.574799c7.6924744 10.955811 -1.8639526 64.80359 -6.9921265 92.30971c-5.128174 27.506119 -28.438751 68.53151 -23.776886 72.727036c4.6618347 4.195526 37.295715 -24.476807 51.748016 -47.553802c14.452332 -23.076996 24.709534 -56.875763 34.96588 -90.90814c10.256348 -34.032364 34.031494 -96.03674 26.572174 -113.28609c-7.45932 -17.249344 -45.45407 0.46631622 -71.328064 9.790024c-25.874023 9.323708 -58.27472 26.57174 -83.916016 46.15223c-25.641296 19.580498 -51.749786 33.568245 -69.93176 71.33071c-18.181976 37.762466 -26.805786 131.70123 -39.16011 155.24411c-12.354324 23.542847 -20.979874 -2.7979126 -34.96588 -13.986877c-13.985992 -11.188995 -35.43045 -33.333344 -48.950134 -53.147003c-13.519684 -19.81363 -26.107605 -39.62773 -32.167976 -65.73489c-6.060364 -26.107178 -10.954063 -63.63562 -4.1942215 -90.90814c6.759842 -27.27253 30.301392 -58.97419 44.75328 -72.727036c14.451874 -13.752842 32.400696 -3.7292213 41.958008 -9.790028c9.557297 -6.0608025 21.446198 -23.0783 15.3858185 -26.574802z" fill-rule="evenodd"/><path fill="#6f36ff" d="m223.77753 16.78111c-4.195526 -3.263342 -41.024933 3.7300968 -50.349075 13.986877c-9.324142 10.256781 -6.761154 28.43963 -5.5957947 47.553802c1.1653442 19.114174 -0.9317627 36.12905 12.587921 67.13124c13.519684 31.002182 49.64917 83.683716 68.53018 118.8819c18.881027 35.19815 37.296585 65.2677 44.755905 92.30707c7.45932 27.039368 9.790039 48.950134 0 69.92914c-9.790009 20.979004 -37.29483 43.35739 -58.740158 55.944885c-21.445312 12.587494 -47.553802 20.512238 -69.93175 19.580048c-22.37796 -0.93218994 -49.18461 -15.150055 -64.33597 -25.173218c-15.151352 -10.023193 -24.008308 -38.229218 -26.572174 -34.96588c-2.5638657 3.2633362 1.86483 37.995605 11.188972 54.54593c9.32415 16.550323 22.844711 31.702545 44.755913 44.75589c21.911194 13.053406 59.905075 26.804504 86.71127 33.56433c26.806213 6.7598267 46.619873 7.926941 74.12601 6.994751c27.506104 -0.93218994 60.84076 -0.9326782 90.910736 -12.587952c30.070007 -11.655273 67.36484 -52.215637 89.509186 -57.34381c22.144379 -5.128174 41.259003 31.236633 43.356964 26.574768c2.0979614 -4.661804 -12.587036 -44.28955 -30.769012 -54.5459c-18.182007 -10.256348 -53.614197 -11.421265 -78.322845 -6.9921265c-24.70868 4.429138 -45.919952 23.543732 -69.92914 33.566925c-24.009186 10.023163 -51.04898 21.910309 -74.12598 26.572174c-23.076996 4.661865 -61.772095 4.6622925 -64.33597 1.3989258c-2.563858 -3.2633057 30.071304 -7.6920166 48.95276 -20.979004c18.88144 -13.286926 47.552917 -34.966278 64.33597 -58.742767c16.78302 -23.776459 34.26465 -51.282135 36.362183 -83.915985c2.0975647 -32.63388 -12.355194 -79.253296 -23.776886 -111.887146c-11.421692 -32.633865 -26.338593 -58.27516 -44.753296 -83.916016c-18.414673 -25.640854 -52.447937 -48.48381 -65.73489 -69.92914c-13.286972 -21.44532 -15.851715 -43.357826 -13.986877 -58.74278c1.8648224 -15.384953 29.371384 -30.303589 25.175842 -33.566933z" fill-rule="evenodd"/></g></svg>